<svg id="Capa_1" data-name="Capa 1" xmlns="http://www.w3.org/2000/svg" viewBox="0 0 1000 1000"><defs><style>.cls-1{fill:#0f6aef;}</style></defs><path class="cls-1" d="M26.2,528.63V473.22H77.07c8.33-106,48.71-196.52,123.18-271,74.69-74.72,165.63-115,271.49-123.36v-50h55.63V79c105.84,8.41,196.34,48.9,270.81,123.5S912.74,367.69,921.12,473.3h50.23v55.33H921.09c-8.46,106-48.78,196.62-123.29,271.13-74.69,74.68-165.59,115-271,123.21V973.8H471.37V922.94C365.47,914.46,274.82,874.2,200.3,799.7,125.58,725,85.26,634.08,77,528.63ZM464.43,392.49H660.14c-17.77,31.46-34.68,61.77-52,91.81-3.05,5.27-2.83,9.08,0,14.18,13.43,23.84,26.48,47.89,39.65,71.88,3.65,6.65,7.26,13.33,11.73,21.56H465.07v155.5c121.24,18.85,252.4-61.36,279.1-200.8,25.75-134.47-63.62-264.68-199-290.8C410.84,229.9,278.79,320,254,455.34,228.29,595.52,321.85,703,409.3,732.23V341.64h55.13Zm62.69-196.88C685.3,222.91,777,314.74,804.34,472.68h60.12c-3.07-76.49-41.23-177.49-125.77-249.85-60.86-52.11-131.17-81.46-211.9-88.11,0,20.31,0,39.05,0,57.79A22.2,22.2,0,0,0,527.12,195.61ZM470.91,806.23c-158.6-27.84-250.28-119.73-277.1-277.09H132.7c9,96.66,48.11,177.82,119.17,243,61.82,56.66,135,87.83,219,95Zm56.34,60.19C706.5,856.27,855.59,702.83,864.38,529.17h-60C777,687.17,685.19,779,527.25,806.19ZM193.79,472.72c27.38-158.15,119.25-249.83,277-277.07V135.38C289.12,146.16,142,301.46,133.81,472.72ZM464.87,536H565.6c-5.8-10.59-10.27-20.76-16.53-29.67-7.53-10.69-7.78-19.82.07-30.48,6.17-8.37,10.51-18.09,15.92-27.66H464.87Z"/><path class="cls-1" d="M26.2,835.26H81.51v82.91h83.23V973.8H26.2Z"/><path class="cls-1" d="M833.41,973.8V918.54h82.82V836H972V973.8Z"/><path class="cls-1" d="M26.2,28.06H160.45V83.12H82.11v83.47H26.2Z"/><path class="cls-1" d="M971.58,28.8V166.06H917V83.74H833.94V28.8Z"/></svg>