<svg id="Capa_1" data-name="Capa 1" xmlns="http://www.w3.org/2000/svg" viewBox="0 0 1000 1000"><defs><style>.cls-1{fill:#0f6aef;}</style></defs><path class="cls-1" d="M361.18,22.06H791.61L651,163.42l138.52,138.5H417.08c0,23.9-.25,46.84.19,69.78a34.93,34.93,0,0,0,4.15,15.67c23.76,42.85,47.89,85.5,71.93,128.19,1.48,2.62,3.1,5.15,5.34,8.88L613.22,331.79c2.77,4.69,4.85,8.08,6.81,11.55q176.09,311.37,352.2,622.75c1.63,2.86,3.8,5.42,5.71,8.12v1.86H24.4c2.45-4.59,4-7.59,5.62-10.51Q193.31,676.77,356.44,387.9A37.07,37.07,0,0,0,361,370.48Q361.38,196.27,361.18,22.06ZM467.93,584.47,389,444.21,120.3,919.53H656.22c-9.31-16.61-18.36-32.08-26.68-47.94-3-5.78-6.71-7.48-13-7.46-63,.23-126.07.14-189.11.14h-9.87V808.21h176.1c-9.72-17.35-18.85-33.13-27.4-49.22-2.75-5.16-6-6.67-11.68-6.64-42.23.23-84.47.13-126.7.13H417.7V696.27H530.76c-10.27-18.23-19.67-35.27-29.56-52-1.17-2-5-3.32-7.58-3.4-12.72-.34-25.46-.15-38.19-.15h-37.6V584.47ZM612.5,443.63a35.82,35.82,0,0,0-2.43,3c-25.69,43.17-51.47,86.28-76.78,129.67-1.62,2.77-.85,8.34.89,11.44q91.05,162.75,182.44,325.32c3,5.3,6.07,7.31,12.24,7.27,44.38-.29,88.77-.16,133.16-.16H882ZM657.17,78.57H417.76V244.85H657.52L574,161.57Z"/></svg>