<svg id="Capa_1" data-name="Capa 1" xmlns="http://www.w3.org/2000/svg" viewBox="0 0 1000 1000"><defs><style>.cls-1{fill:#0f6aef;}</style></defs><path class="cls-1" d="M26.2,549l78.54-23.69c5.43,17.27,10.8,34.36,16.55,52.63L44.34,602C38.11,585,32.16,568.84,26.2,552.64Z"/><path class="cls-1" d="M26.2,303.28c5.92-16.32,11.84-32.64,18-49.67l77,24.05-16.36,52.51L26.2,307Z"/><path class="cls-1" d="M686.29,852.22h-47.9c-7.66,42.12-28.48,75.31-64.23,98.4-26.49,17.12-55.71,23.71-87.09,21.41-50.74-3.73-112.69-41-127.47-119.58H312.36c-.19-4.2-.46-7.48-.46-10.75,0-30.47-.31-60.94.05-91.41.39-32.77-11.26-59.56-36.08-81.39C226,625.07,192.9,570.58,175,506.74,123.11,321.74,243.43,126.33,432.2,89,609.69,53.94,782,161.15,824.52,337c30.59,126.53-4,236.64-97.4,327.44-17.86,17.36-33.64,35.14-38.31,60.26a153.55,153.55,0,0,0-2.42,26.57C686.12,784.44,686.29,817.65,686.29,852.22ZM498.67,651c49.85,0,99.71-.29,149.56.24,10.38.11,18-2,24.35-10.68,4.69-6.34,11.42-11.15,17.17-16.7,68-65.59,98.41-145.65,87.61-239.39C758.89,224.28,609,114.23,449.65,142.23c-207.6,36.48-302,285-170.4,449.6,15.29,19.12,34.15,35.35,50.91,53.32,4,4.25,7.69,6,13.41,6C395.27,650.92,447,651,498.67,651ZM367.28,796.35H629.86c1.16-30.15,2.31-59.73,3.46-89.25H364.19c1.06,15.3,2.47,29.94,3,44.62S367.28,781.1,367.28,796.35Zm50.89,56.57c2,33.32,42.66,64.64,82.38,64,38.64-.59,78.31-32.42,79.32-64Z"/><path class="cls-1" d="M893.44,330.63l-16.5-52.83,78.34-24.26c5.47,17.27,10.9,34.4,16.72,52.8Z"/><path class="cls-1" d="M876.93,577.86c5.59-17.91,11-35.07,16.51-52.86l78.48,24.21L954.42,602Z"/><path class="cls-1" d="M148.89,67.56l36.22-36.23,55.27,55.33c-11.56,11.48-24.32,24.13-36.86,36.57Z"/><path class="cls-1" d="M849.54,68l-55.47,55.78L756.75,86.44,812.4,31Z"/><path class="cls-1" d="M148.56,786.27l54.95-54.79,37.13,37-54.92,54.86Z"/><path class="cls-1" d="M794.56,731.85,849,786.27l-37.6,37.53-54-54.72C769.31,757.14,782,744.42,794.56,731.85Z"/><path class="cls-1" d="M499.65,542.25c-45.07-2.26-82.56-20.76-116.43-47.89a334.2,334.2,0,0,1-77.33-88.44c-1.58-2.6-2.59-7.46-1.23-9.65,30.67-49.8,69.19-91.89,122.09-118.63,53.83-27.2,107-23.27,158.25,7.28,45.62,27.18,80.3,65.44,108,110.3,1.31,2.12,2,6.24.78,8.1-35.61,56.57-79.49,104.26-144.06,127.9C533.81,537.05,516.38,538.68,499.65,542.25ZM629.56,400c-23.56-30.23-49.39-56.2-83.19-73-22.44-11.18-46-15.66-70.62-8.82C430.52,330.74,399.13,362,371,397.36c-1,1.27-.14,5.26,1.18,6.94,21.29,27,45.57,50.76,76.3,67.07,32.76,17.4,65.83,18,98.93,1.17C580.74,455.55,606.38,429.8,629.56,400Z"/><path class="cls-1" d="M526.48,372.83v54H471.89v-54Z"/></svg>