<svg id="Capa_1" data-name="Capa 1" xmlns="http://www.w3.org/2000/svg" xmlns:xlink="http://www.w3.org/1999/xlink" viewBox="0 0 1000 1000"><defs><style>.cls-1{fill:url(#Degradado_sin_nombre_8);}.cls-2{fill:url(#Degradado_sin_nombre_8-2);}.cls-3{fill:url(#Degradado_sin_nombre_8-3);}</style><linearGradient id="Degradado_sin_nombre_8" x1="501.67" y1="66.79" x2="498.81" y2="1720.65" gradientUnits="userSpaceOnUse"><stop offset="0" stop-color="#fcc01a"/><stop offset="1" stop-color="#e31c45"/></linearGradient><linearGradient id="Degradado_sin_nombre_8-2" x1="528.56" y1="66.83" x2="525.7" y2="1720.69" xlink:href="#Degradado_sin_nombre_8"/><linearGradient id="Degradado_sin_nombre_8-3" x1="189.25" y1="66.25" x2="186.4" y2="1720.11" xlink:href="#Degradado_sin_nombre_8"/></defs><path class="cls-1" d="M538,888.8c8.31,3,15.78,5.45,23.15,8.24,17.15,6.49,23.8,19.7,20.23,39.89-2.43,13.79-14.54,23-30.84,23.1q-44.83.18-89.67,0c-19.8-.09-30.88-11.4-29.43-31.12,3.66-49.88,7.84-99.71,11.82-149.57.16-2.11.38-4.23.83-9.17-2.66,4.16-4.08,6.08-5.18,8.17-16.35,31-32.51,62.07-49.11,92.92-3,5.54-2.71,9.19,1.68,13.56a166.92,166.92,0,0,1,13.73,15.93c9.81,12.62,8.26,28.73-3.81,42.54-9.29,10.61-23.35,13-36.54,5.55q-40.94-23.25-81.52-47.12c-13.76-8.09-18.95-23.72-10.35-36,35.23-50.44,53.42-109.29,81.75-163.07,9.73-18.47,10.73-37.73,12-57.42,1.86-28.91,3.79-57.82,5.23-86.76.22-4.27-1.91-8.71-3.23-13-2.78-9-5.74-17.88-8.84-27.48H333.75c-28.34,80.25-84.49,117.62-170.07,111.3V934.45c8.82,0,17.27-.1,25.7,0,9.18.14,14.8,5,14.81,12.56s-5.68,12.88-14.69,13q-39.34.3-78.69,0c-9-.08-14.59-5.61-14.45-13.15s5.58-12.22,15-12.35c8.19-.12,16.37,0,25.46,0,.23-3.93.59-7.15.59-10.37q0-146.9.15-293.78c0-6.69-1.79-10-8.34-12.76C67.46,591.38,31.87,526.3,41.56,458.22c9.18-64.5,63.86-117,129.65-124.35C243,325.78,309.31,369,330.41,437.93c1.9,6.19,4.61,8.16,10.82,7.75,8.15-.54,16.36-.13,25.37-.13,2.71-20.21,5.31-39.75,7.94-59.28C380,346.1,384.67,305.81,391,265.79c6.93-44,48.57-74.24,92.38-68.58,44.22,5.71,76.51,44.69,72.64,89.2-2.32,26.7-6.69,53.22-9.62,79.87a15.28,15.28,0,0,0,3.73,10.92c20.41,21,41.37,41.46,61.85,62.38,4.45,4.55,9,6.1,15.25,6.09q145.95-.26,291.9-.08c5.16,0,10.48-.11,15.45,1,16.89,3.94,28.69,20.51,27.23,37.46-1.57,18.24-16,32.6-34.25,33.13-17.37.5-34.77.17-52.16.2H864.9v417c8.74,0,17.19-.11,25.64,0,9.24.15,14.74,4.95,14.74,12.58S899.71,959.91,890.6,960q-39.35.3-78.69,0c-9-.08-14.63-5.69-14.46-13.17s5.76-12.2,15-12.33c8.22-.11,16.43,0,25.4,0v-417h-9.47c-64.36,0-128.71-.08-193.07.17a28.56,28.56,0,0,0-13.44,3.93c-14.46,8.29-29.12,9.42-43.36.79a33.92,33.92,0,0,0-19.7-5c-10.33.3-20.68.08-33.52.08,1.4,10.11,1.84,19.7,4.15,28.82,9.67,38.07,18.75,76.36,30.27,113.88,9.82,32,9.59,63.13,2.8,95.49C553.34,799.4,546.21,843.63,538,888.8Zm-152.07-371c3.61,9.2,6.19,17.28,9.85,24.84,24.8,51.23,49.88,102.32,74.68,153.54,2.05,4.25,4.11,9.28,3.79,13.78-2.75,39.21-6.05,78.37-9.16,117.56-1.48,18.71-2.9,37.43-4.42,57.08,15.59,0,30.17-.22,44.74.11,5.73.13,7.69-1.81,8.7-7.54,7.61-43.47,14.66-87.09,23.9-130.23,6-28,3.84-54.32-3.42-81.81C521.73,616.49,505,568.67,499.1,517.83ZM65.37,481c-.17,67.89,55.37,123.64,123.18,123.67,67.38,0,122.75-55.22,123.15-122.84.4-67.27-55-123.22-122.32-123.6C121.43,357.86,65.53,413.2,65.37,481Zm432.88-35.87c-3.28-3.54-5.22-5.78-7.3-7.87q-23.26-23.32-46.57-46.62C433.76,380,428,367.14,427.82,352.16c-.29-20.13-.2-40.27-.07-60.41.07-9.37,4.79-14.7,12.53-14.87,8.17-.18,13,5.23,13,15.2.11,17.7.42,35.4-.09,53.09-.37,12.45,3.79,22.19,12.66,31,39.27,38.82,78.18,78,117.24,117a53.69,53.69,0,0,0,6.74,6.16c6.79,4.8,15.34,4.14,20.84-1.76s6.51-13,2.14-20.11c-1.73-2.81-4.26-5.16-6.62-7.53Q550,413.59,493.56,357.37c-5.13-5.09-7.66-10.42-7.48-17.74.4-15.86,0-31.73.16-47.6.08-9.9,5-15.35,13.12-15.16,7.75.19,12.33,5.5,12.43,14.92.13,13.11.54,26.26-.14,39.35-.46,8.66,3.87,13.05,10.82,17.12,2-14.34,4.4-27.88,5.5-41.52s3.31-27.73.67-40.75c-5.65-28-31.47-45.27-60.52-43.47-27.71,1.71-49.46,23.95-53.26,53.82-5.13,40.21-10.66,80.38-16,120.57-2.1,15.89-4.07,31.8-6.16,48.23ZM396.44,603.44l-1.54.32C393.58,625.17,392,646.57,391,668a87.48,87.48,0,0,1-8.09,34.25c-19.87,42.1-39.08,84.5-58.52,126.8-1.1,2.4-2,4.88-3.16,7.68l44,25.31a42.58,42.58,0,0,0,2.47-3.59c25.69-48.73,51.45-97.42,76.81-146.32,1.55-3,1-8.23-.52-11.49-13.82-29.14-28.07-58.08-42.22-87.06C400.08,610.15,398.22,606.82,396.44,603.44ZM641.77,491.79h280c1.53,0,3.6.56,4.48-.22,3.52-3.12,9.2-6.62,9.26-10.06s-5.54-7.09-9.17-10c-1.31-1.06-4.14-.3-6.27-.3q-136.31,0-272.61,0c-2.62,0-5.25.3-7.91.46Zm-304.51-.71H543.12c-1.64-4.11-4.94-6-7-8.86-6.84-9.17-15.56-11.44-26.87-11.31-54,.6-108,.27-162,.27h-10ZM379.8,927.91c6.28-5.29,6.44-9.22,1.93-15.8-18.2-26.57-47.49-37-73.47-53.27l-13.57,19.94Zm76.73,6.5c32.32,0,63.26.08,94.2-.19,1.83,0,5.37-3.29,5.12-4.31-.8-3.27-2.23-7.68-4.8-9-29.25-15.2-60.76-10.07-92.28-10.4C458,918.51,457.35,925.69,456.53,934.41Z"/><path class="cls-2" d="M609.59,119c.26,44.53-35.75,81.18-80.15,81.57A81.31,81.31,0,0,1,527.85,38C572.53,37.58,609.33,74.06,609.59,119ZM473,118.3c-.48,30.67,23.51,56,53.68,56.66,31.48.7,56.89-23.68,57.3-55a55.5,55.5,0,1,0-111-1.68Z"/><path class="cls-3" d="M228.1,521c0,11.08.14,21.09,0,31.09s-4.66,14.66-14.5,14.77q-25.14.3-50.31,0c-9.53-.12-13.89-4.56-14.09-14.08-.22-10.28,0-20.56,0-31.77-10.74,0-20.42.08-30.09,0-11.33-.12-15.75-4.21-15.87-15.2q-.28-24.7,0-49.4c.14-10.1,4.52-14.19,14.76-14.35,10-.15,20,0,31.17,0,0-10.85-.11-20.81,0-30.77.16-10.83,4.17-15.05,14.86-15.17,16.15-.19,32.32-.16,48.48,0,11.18.1,15.47,4.44,15.61,15.48.12,9.73,0,19.45,0,30.48,10.49,0,20.43-.1,30.38,0,11.12.13,15.39,4.39,15.47,15.54q.18,23.78,0,47.57c-.08,11.52-4.44,15.74-16.19,15.85C248.36,521.07,238.93,521,228.1,521ZM248,467.62c-9.79,0-18.6,0-27.4,0-14-.06-18.08-4.08-18.14-17.8,0-9.07,0-18.14,0-27.65H174.72c0,9.59.06,18.66,0,27.73-.1,13.3-4.35,17.61-17.46,17.72-9.33.07-18.66,0-27.76,0v27.76c10.18,0,19.6-.08,29,0,11.49.12,16,4.56,16.18,16.09.15,9.66,0,19.32,0,29.26h26.84a9.3,9.3,0,0,0,.77-2.19c.08-8.84.08-17.68.16-26.52.12-12.17,4.41-16.55,16.43-16.65,9.63-.08,19.26,0,29.11,0Z"/></svg>