<svg id="Capa_1" data-name="Capa 1" xmlns="http://www.w3.org/2000/svg" xmlns:xlink="http://www.w3.org/1999/xlink" viewBox="0 0 1000 1000"><defs><style>.cls-1{fill:url(#Degradado_sin_nombre_8);}.cls-2{fill:url(#Degradado_sin_nombre_8-2);}.cls-3{fill:url(#Degradado_sin_nombre_8-3);}.cls-4{fill:url(#Degradado_sin_nombre_8-4);}.cls-5{fill:url(#Degradado_sin_nombre_8-5);}.cls-6{fill:url(#Degradado_sin_nombre_8-6);}.cls-7{fill:url(#Degradado_sin_nombre_8-7);}.cls-8{fill:url(#Degradado_sin_nombre_8-8);}.cls-9{fill:url(#Degradado_sin_nombre_8-9);}.cls-10{fill:url(#Degradado_sin_nombre_8-10);}.cls-11{fill:url(#Degradado_sin_nombre_8-11);}.cls-12{fill:url(#Degradado_sin_nombre_8-12);}.cls-13{fill:url(#Degradado_sin_nombre_8-13);}.cls-14{fill:url(#Degradado_sin_nombre_8-14);}.cls-15{fill:url(#Degradado_sin_nombre_8-15);}.cls-16{fill:url(#Degradado_sin_nombre_8-16);}</style><linearGradient id="Degradado_sin_nombre_8" x1="501.76" y1="100.18" x2="486.79" y2="1674.2" gradientUnits="userSpaceOnUse"><stop offset="0" stop-color="#fcc01a"/><stop offset="1" stop-color="#e31c45"/></linearGradient><linearGradient id="Degradado_sin_nombre_8-2" x1="222.72" y1="97.53" x2="207.75" y2="1671.55" xlink:href="#Degradado_sin_nombre_8"/><linearGradient id="Degradado_sin_nombre_8-3" x1="299.1" y1="98.25" x2="284.13" y2="1672.27" xlink:href="#Degradado_sin_nombre_8"/><linearGradient id="Degradado_sin_nombre_8-4" x1="537.26" y1="100.52" x2="522.29" y2="1674.54" xlink:href="#Degradado_sin_nombre_8"/><linearGradient id="Degradado_sin_nombre_8-5" x1="667.71" y1="101.76" x2="652.74" y2="1675.78" xlink:href="#Degradado_sin_nombre_8"/><linearGradient id="Degradado_sin_nombre_8-6" x1="663.46" y1="101.72" x2="648.49" y2="1675.74" xlink:href="#Degradado_sin_nombre_8"/><linearGradient id="Degradado_sin_nombre_8-7" x1="519.79" y1="100.35" x2="504.82" y2="1674.37" xlink:href="#Degradado_sin_nombre_8"/><linearGradient id="Degradado_sin_nombre_8-8" x1="522.31" y1="100.38" x2="507.34" y2="1674.4" xlink:href="#Degradado_sin_nombre_8"/><linearGradient id="Degradado_sin_nombre_8-9" x1="538.98" y1="100.53" x2="524.01" y2="1674.55" xlink:href="#Degradado_sin_nombre_8"/><linearGradient id="Degradado_sin_nombre_8-10" x1="543.52" y1="100.58" x2="528.55" y2="1674.6" xlink:href="#Degradado_sin_nombre_8"/><linearGradient id="Degradado_sin_nombre_8-11" x1="517.46" y1="100.33" x2="502.49" y2="1674.35" xlink:href="#Degradado_sin_nombre_8"/><linearGradient id="Degradado_sin_nombre_8-12" x1="526.95" y1="100.42" x2="511.98" y2="1674.44" xlink:href="#Degradado_sin_nombre_8"/><linearGradient id="Degradado_sin_nombre_8-13" x1="532.17" y1="100.47" x2="517.2" y2="1674.49" xlink:href="#Degradado_sin_nombre_8"/><linearGradient id="Degradado_sin_nombre_8-14" x1="524.62" y1="100.4" x2="509.65" y2="1674.42" xlink:href="#Degradado_sin_nombre_8"/><linearGradient id="Degradado_sin_nombre_8-15" x1="386.94" y1="99.09" x2="371.97" y2="1673.11" xlink:href="#Degradado_sin_nombre_8"/><linearGradient id="Degradado_sin_nombre_8-16" x1="537.26" y1="100.52" x2="522.29" y2="1674.54" xlink:href="#Degradado_sin_nombre_8"/></defs><path class="cls-1" d="M628.24,142.78C668.6,136.27,708,130,747.45,123.55c50.38-8.19,100.72-16.54,151.12-24.61,22.59-3.62,45.35,7.5,57.35,27.41,12.47,20.67,11.6,45.43-3.64,64.9-26,33.21-52.61,65.91-79,98.82-4.43,5.52-8.9,11-13.27,16.58-4.15,5.29-9.9,9.53-5.32,18.25,1.42,2.71-2.23,9.23-5.05,12.84-17,21.84-34.24,43.56-51.91,64.89-17.38,21-26.66,45-26.91,72-.59,64.57-10.59,128.13-19.8,191.76C739.66,745.06,740.62,823.5,753,901.89c1.78,11.24,3.49,22.49,5.44,33.7,2.51,14.38-2.09,20-16.94,20q-154.2,0-308.4,0-42.48,0-84.95,0c-14.66,0-19.54-6.56-15.48-20.54q17.22-59.32,34.47-118.64c.33-1.16.45-2.37.78-4.14-3-1.52-5.91-3.09-8.9-4.51Q216,740.25,73.07,672.64c-8.5-4-17.18-8.89-23.84-15.35-22.56-21.91-20.64-58,4.2-79.28,28.28-24.22,57.24-47.66,85.92-71.41,4-3.3,7.84-5.81,6.28-12.72-.74-3.25,2.8-8.91,6-11.4,45.25-35.05,90.48-70.14,136.44-104.24,10.56-7.83,19.23-13,20.79-28.92,3.05-31.19,22.62-52.28,52.37-61.65,29.37-9.25,55.87-2.2,78.15,19.45,1.09,1.07,2.23,2.09,3.77,3.54,16.61-15.56,37.8-9.74,57.17-11.84,23.83-2.59,47.87-3.74,71.85-4.34,8.87-.22,18.07,2.07,26.68,4.66,9.67,2.91,19,7.14,28.18,11.38,7.09,3.27,12.45,2.23,18.31-3,23.11-20.79,46.62-41.14,69.93-61.71,5.45-4.8,10.66-9.23,18.9-6,1.84.72,4.92-1.71,7.43-2.7-.19-.78-.39-1.57-.58-2.35-11.76.81-23.52,1.54-35.27,2.45-31.29,2.43-62.59,4.73-93.83,7.68-3.86.36-8.1,3.67-10.93,6.75-32.71,35.6-73.07,50-120.1,39.75s-78.52-39.91-92.48-86.11c-19.61-64.87,17.72-133.4,82.26-153.15a123.7,123.7,0,0,1,154.5,81.17C626.11,136.16,627.05,139.06,628.24,142.78ZM361.67,929.14H730.8c-1.77-12.49-3.34-24.37-5.14-36.22-12.28-81-10.36-161.83,1.41-242.83,7.11-49,15.34-98.31,16-147.57.77-54.17,15.43-100.1,52.88-139.1,9.88-10.29,18-22.26,27.39-34.05L729.82,268c-1.76,1.37-3.24,2.42-4.59,3.6-21.53,18.87-43.16,37.63-64.52,56.68-12.32,11-26.09,14.37-40.82,6.85-25.15-12.84-51.1-17.09-79.22-13.43-22.83,3-46,2.95-69.06,4.57-12.57.88-15.19,4.87-12.13,16.82.56,2.19,1,4.43,1.56,7.15,5.09-12.81,9.94-16.17,22-11.18,21,8.67,40.28,8.81,59.6-4.56,8-5.55,16-2.51,19.43,4.81,3.32,7,.6,13.51-7.93,17.9-10.11,5.21-20.29,10.29-30.63,15-2.92,1.34-6.78,2.51-9.67,1.73-17.48-4.71-34.79-10-51.78-15-3,40-22.39,66.78-56.58,76.65-35.25,10.17-63.8-2.76-93.56-43.57L175.77,496.21l58,80.9c33-21.18,65.1-41.8,97.25-62.31,11.26-7.19,17.93-5.26,23.58,6.61q6.35,13.33,12.35,26.81C390.75,602,409.88,656.94,408.81,717c-.05,2.54,2.46,6,4.77,7.55,8.16,5.46,17.4,9.46,25,15.51,16.06,12.72,23.09,29.63,17.66,49.91C451,809.53,437.6,821.59,417.64,825c-8.2,1.41-16.85.23-25.68.23C382.06,859.21,371.93,893.94,361.67,929.14ZM829.33,302.32a23.76,23.76,0,0,0,2.8-2.39c33.13-41.26,66.36-82.44,99.26-123.87,9.28-11.69,9.5-25.1,2-37-7.36-11.58-19.54-16.44-34.42-14q-106,17.24-212,34.37c-27.3,4.42-54.63,8.71-81.89,13.34-13.41,2.27-21.91,13.09-20.55,25.2,1.41,12.61,11.58,21.22,24.88,20.79,6.45-.21,12.88-.83,19.32-1.33q76.8-6,153.59-12.09c7-.55,13.09.56,16,7.84,3,7.67-.9,12.8-6.76,17.3-10.7,8.22-21.21,16.69-32.51,25.62ZM162,521.34c-31.65,26.31-63.06,52-94,78.36-9.64,8.22-11.9,22.44-4.8,32.83a48.51,48.51,0,0,0,18.55,15.53Q236.58,721.74,391.81,794.6a74.42,74.42,0,0,0,12,4.67,22,22,0,0,0,25.28-10.45c5.26-9.19,3.89-19.16-4.54-26.71a79.08,79.08,0,0,0-14.49-9.72Q295.2,688.52,180.25,624.8q-22.45-12.46-1.51-27.75c7.92-5.79,15.87-11.54,24.6-17.88ZM601.44,146.56C593.78,105.62,552.8,73,509,72.5c-47.33-.58-87.54,31.43-97.83,77.89-9.85,44.45,14.23,91.2,56.64,110,38.29,16.94,89.74,5.71,110.71-24.16C542.92,206.3,557.6,154.7,601.44,146.56Zm-218.65,561c-1.57-60.16-22.82-112.5-46.87-165-3.46,2.12-6.3,3.8-9.08,5.58Q284.95,575,243.06,601.84c-12,7.68-14.29,7.62-25.61-.86l-11.57,8.48Zm.75-295a51.6,51.6,0,0,0,52.4-50.75c.43-28.12-22.9-51.83-51.24-52.09a51.42,51.42,0,0,0-1.16,102.84Z"/><path class="cls-2" d="M206.18,317.68c2-7.49,3.47-13.73,5.46-19.79,3.12-9.46,10.88-12.87,19.66-8.1,14,7.63,27.82,15.7,41.51,23.93,7.07,4.25,9.05,12.09,4.94,18.16-4.51,6.65-10.73,7.92-17.69,4.13-8.85-4.83-17.52-10-27.43-15.62-1.88,6.66-3.43,12.43-5.15,18.15-3.32,11.1-11.14,14.61-21.2,9.06q-18.94-10.47-37.47-21.7c-7.47-4.52-9.36-11.52-5.57-18s10.82-8.29,18.44-4.2C189.7,308,197.51,312.71,206.18,317.68Z"/><path class="cls-3" d="M289.17,204.44c6.25-3.58,11.46-6.75,16.83-9.61,9.77-5.2,17.94-2.18,20.92,8.22,4.32,15,8.22,30.2,12,45.38,2.07,8.27-1.6,14.7-8.83,16.53-7.46,1.89-13.34-1.62-15.88-10-2.9-9.59-5.4-19.29-8.39-30-6.37,3.64-11.79,7-17.44,9.91-9.3,4.79-17.17,1.63-20.11-8.44-4-13.84-7.72-27.79-11.18-41.78-2.24-9,1.36-15.68,8.74-17.56s13.51,2.33,16.14,11.22C284.43,186.43,286.54,194.75,289.17,204.44Z"/><path class="cls-4" d="M559.51,755.36c43.22,28.3,57.19,61.16,43.17,99.5-12.13,33.19-46.87,54.82-80.71,50.26-37.46-5-65.23-33.28-68.8-70-3.74-38.4,19.14-69.17,63.11-83.77-3.85-1.26-7-2-9.85-3.3-6.62-3-10.22-7.93-8.31-15.46,1.77-7,8.32-10.67,15.77-9.2a10.11,10.11,0,0,1,2.63.85c21.39,10.54,40.9,6.44,60.32-6.1,11.1-7.16,19.23-5.22,23.08,2.49,4,7.93.22,14.61-11.43,20.38ZM530.38,879.7c28.2-.06,51.7-23.76,51.46-51.9-.23-27.9-23.37-51-51.23-51.23-28.29-.2-51.77,23.11-51.82,51.45A51.77,51.77,0,0,0,530.38,879.7Z"/><path class="cls-5" d="M648.72,884.12c3.21-6.53,5.77-12,8.59-17.41,5.21-9.93,13.29-12,21.74-5.07q17.09,14,33.58,28.74c6.15,5.47,6.8,13.67,1.71,18.78-5.62,5.64-12,5.77-18.16.84-7.14-5.71-14-11.73-22-18.39-3,6.16-5.58,11.59-8.35,16.9-5.52,10.62-13.33,12.6-22.34,5.19-11.85-9.75-23.47-19.79-35-29.94-7-6.14-7.6-13.51-2.26-19.38,5-5.48,12-5.7,18.89-.15C632.81,870.39,640.18,876.87,648.72,884.12Z"/><path class="cls-6" d="M648.21,768.42c-3.47-6.44-6.53-11.75-9.23-17.23-4.88-9.89-1.57-17.84,8.94-20.59,14-3.66,28-6.94,42.05-10.14,8.7-2,15.34,1.94,17,9.55,1.53,7-2.6,12.91-11.14,15.31s-17.12,4.44-26.67,6.89c3.36,6.33,6.47,11.82,9.22,17.49,4.65,9.59,1.6,17.22-8.58,20-15.39,4.18-30.92,7.84-46.46,11.44-7.74,1.8-13.33-1.32-15.64-9-2.2-7.34,1.63-13.52,9.95-15.87C627.38,773.47,637.23,771.2,648.21,768.42Z"/><path class="cls-7" d="M519.18,462.17c-15.5-4.66-31.23-8.84-46.52-14.26-6-2.12-8.21-8.37-6-14.73,2.5-7,7.88-10.26,15.25-8.45,9.83,2.42,19.43,5.92,29.33,7.86a28.45,28.45,0,0,0,14.59-1.47c7.45-2.73,14.34-7,21.61-10.26,8.32-3.75,15.46-1.39,18.67,5.77,3,6.73.39,13.26-7.48,17.35-10.35,5.38-20.84,10.5-31.34,15.56C524.9,460.72,522.14,461.24,519.18,462.17Z"/><path class="cls-8" d="M468,484.31c-.29-12.17,7.83-18.24,17.23-15.88,9.22,2.31,18.19,5.78,27.49,7.54a30.91,30.91,0,0,0,15.48-1.37c7.75-2.8,14.9-7.21,22.42-10.69s13.48-1.27,17.12,5.73c3.76,7.25,1.15,13.43-5.74,17.11-11.1,5.92-22.37,11.56-33.87,16.65a19.18,19.18,0,0,1-11.57.72c-12.8-3.18-25.63-6.49-38-11C473.8,491.4,470.29,486.33,468,484.31Z"/><path class="cls-9" d="M536.23,676.29c-15.41-4.64-31.15-8.77-46.41-14.26-6.47-2.32-8.28-9-5.57-15.6s8-9.37,14.87-7.64c10.11,2.54,20,6,30.19,8.18a23.74,23.74,0,0,0,12.85-1.23c7.69-3,14.87-7.29,22.4-10.74,7.83-3.59,14.89-1.57,18.32,4.84,3.63,6.79,1,14.1-7,18.27-10.35,5.37-20.86,10.44-31.37,15.48C542,674.76,539.3,675.31,536.23,676.29Z"/><path class="cls-10" d="M540.38,718.8c-15.18-4.6-31.17-8.9-46.73-14.4-6.3-2.23-7.54-8.88-5.45-14.95,2.27-6.6,7.59-9.91,14.5-8.28,10.44,2.46,20.61,6.05,31.07,8.39a21.4,21.4,0,0,0,12-1c7.94-3.21,15.38-7.64,23.19-11.19s15.08-1.15,18.23,5.27.61,13.93-6.72,17.76c-10.6,5.55-21.4,10.7-32.18,15.89C546.12,717.29,543.67,717.76,540.38,718.8Z"/><path class="cls-11" d="M565.39,391.08c-1.58,1.84-4,6.48-7.75,8.62-10.94,6.17-22.3,11.65-33.81,16.7-3.31,1.45-7.89,1.38-11.51.49-12.21-3-24.27-6.63-36.33-10.2-9.33-2.77-13.73-9.45-11.42-16.84,2.37-7.56,9.24-10.46,18.82-8a11.88,11.88,0,0,1,1.74.59c20.65,9.13,40.12,8.82,59.55-4.5C554.3,371.4,565.38,377.86,565.39,391.08Z"/><path class="cls-12" d="M524.13,592.51c-15-4.46-30.19-8.43-44.94-13.57-6.46-2.25-8.9-8.37-6.47-15.24,2.54-7.15,8-10.17,15.29-8.41,9.84,2.39,19.4,6,29.28,8.07A25.73,25.73,0,0,0,531,562.19c7.71-2.93,14.87-7.3,22.4-10.75,7.79-3.58,14.76-1.49,18.22,5s1.25,13.8-6.32,17.79c-10.87,5.71-22,11-33.05,16.28C529.86,591.69,527,591.85,524.13,592.51Z"/><path class="cls-13" d="M578,607.52c-1.89,2.07-4.59,6.79-8.66,9.13A289.38,289.38,0,0,1,538,632.09a22.73,22.73,0,0,1-13.25,1.1c-12.23-2.87-24.26-6.62-36.31-10.22-9.33-2.79-13.55-9.42-11.16-17,2.24-7.15,9.14-10.17,18.06-7.9a5.29,5.29,0,0,1,.87.31c21.5,9.65,41.84,9.53,62.1-4.48C567.25,587.72,578.19,594.71,578,607.52Z"/><path class="cls-14" d="M485,511.48c9.24,2.58,19.77,6,30.54,8.27a25.77,25.77,0,0,0,13.79-1.22c7.71-2.91,14.85-7.3,22.41-10.68,7.91-3.53,14.81-1.29,18.1,5.38s.94,13.58-6.75,17.62q-16.29,8.55-33,16.21a15.81,15.81,0,0,1-9.72,1c-13.65-3.52-27.2-7.5-40.7-11.57-7.13-2.15-10.78-7.31-9.38-14.72C471.54,514.89,476.37,511.44,485,511.48Z"/><path class="cls-15" d="M384.05,386.94a25.45,25.45,0,0,1-25.47-25.83,26.06,26.06,0,0,1,25.65-25.9c14.27-.11,26.4,12.23,26.08,26.53A25.86,25.86,0,0,1,384.05,386.94Z"/><path class="cls-16" d="M530.34,854a25.87,25.87,0,0,1-.58-51.74,25.87,25.87,0,1,1,.58,51.74Z"/></svg>