<svg id="Capa_1" data-name="Capa 1" xmlns="http://www.w3.org/2000/svg" xmlns:xlink="http://www.w3.org/1999/xlink" viewBox="0 0 1000 1000"><defs><style>.cls-1{fill:url(#Degradado_sin_nombre_8);}.cls-2{fill:url(#Degradado_sin_nombre_8-2);}.cls-3{fill:url(#Degradado_sin_nombre_8-3);}.cls-4{fill:url(#Degradado_sin_nombre_8-4);}.cls-5{fill:url(#Degradado_sin_nombre_8-5);}.cls-6{fill:url(#Degradado_sin_nombre_8-6);}.cls-7{fill:url(#Degradado_sin_nombre_8-7);}.cls-8{fill:url(#Degradado_sin_nombre_8-8);}.cls-9{fill:url(#Degradado_sin_nombre_8-9);}.cls-10{fill:url(#Degradado_sin_nombre_8-10);}</style><linearGradient id="Degradado_sin_nombre_8" x1="429.65" y1="115.7" x2="425.37" y2="1696.13" gradientUnits="userSpaceOnUse"><stop offset="0" stop-color="#fcc01a"/><stop offset="1" stop-color="#e31c45"/></linearGradient><linearGradient id="Degradado_sin_nombre_8-2" x1="551.09" y1="116.02" x2="546.81" y2="1696.46" xlink:href="#Degradado_sin_nombre_8"/><linearGradient id="Degradado_sin_nombre_8-3" x1="375.06" y1="115.55" x2="370.78" y2="1695.98" xlink:href="#Degradado_sin_nombre_8"/><linearGradient id="Degradado_sin_nombre_8-4" x1="781.34" y1="116.65" x2="777.07" y2="1697.08" xlink:href="#Degradado_sin_nombre_8"/><linearGradient id="Degradado_sin_nombre_8-5" x1="674.55" y1="116.36" x2="670.28" y2="1696.79" xlink:href="#Degradado_sin_nombre_8"/><linearGradient id="Degradado_sin_nombre_8-6" x1="317.38" y1="115.39" x2="313.1" y2="1695.83" xlink:href="#Degradado_sin_nombre_8"/><linearGradient id="Degradado_sin_nombre_8-7" x1="180.16" y1="115.02" x2="175.88" y2="1695.46" xlink:href="#Degradado_sin_nombre_8"/><linearGradient id="Degradado_sin_nombre_8-8" x1="94.83" y1="114.79" x2="90.55" y2="1695.22" xlink:href="#Degradado_sin_nombre_8"/><linearGradient id="Degradado_sin_nombre_8-9" x1="120.52" y1="114.86" x2="116.24" y2="1695.29" xlink:href="#Degradado_sin_nombre_8"/><linearGradient id="Degradado_sin_nombre_8-10" x1="781.07" y1="116.65" x2="776.8" y2="1697.08" xlink:href="#Degradado_sin_nombre_8"/></defs><path class="cls-1" d="M177.24,464.23c1.64-55.74,21.85-97.58,63.29-127.46,67.3-48.53,135.41-95.93,203.2-143.78Q549.54,118.32,655.39,43.7a67.8,67.8,0,0,1,6.9-4.54c6.4-3.4,12.11-1.83,16.24,3.72S682,54.48,677,59.47a60.34,60.34,0,0,1-8,6.11Q466,208.79,262.87,351.92c-39.79,28-61.86,65.51-59,114.43,1.54,26.09,8.13,51.93,13,77.78q37.79,200.22,75.86,400.4c2,10.68-1.24,17.34-9,19.28s-14.32-3.37-16.21-13.33q-9.35-49.14-18.58-98.31Q215.44,675,181.94,497.75C179.57,485.15,178.35,472.33,177.24,464.23Z"/><path class="cls-2" d="M463.25,525.88c-25.68-.6-39.58-10.68-50-26.34-10.88-16.41-15.66-35.06-18.92-54.17-4-23.19-14.45-34.48-37.14-39.86-5.05-1.2-10.22-2.2-15-4.06-22.59-8.72-28.39-35.69-9.61-51,9.79-7.95,22.76-13.1,35.13-16.47,14-3.82,28.95-5.24,43.56-5.9,27.85-1.27,52.42-10.27,74.94-26.54Q596.43,222,707,142.94c3-2.14,5.91-4.38,9-6.36,6.62-4.24,12.86-3.75,18,2.4,4.61,5.54,3.37,13.51-3.29,18.49-13.48,10.08-27.26,19.77-40.94,29.59-62.67,45-125.47,89.83-188,135.06-27.09,19.6-56.78,30.52-90.33,31.79-13.38.5-26.71,3.12-40,5.41a47.68,47.68,0,0,0-15.42,5.59c-3.3,1.9-5.43,5.84-8.09,8.87,3.26,1.86,6.37,4.06,9.8,5.54,12.24,5.26,25.65,8.62,36.62,15.78,15.95,10.39,21.72,27.75,25.76,46,3.21,14.47,7.16,29.34,14,42.32,11.6,21.91,32.77,22.4,46.41,1.61,5.35-8.15,8.68-18.27,10.56-27.95,7.75-40,27.14-72.72,60.08-96.62,68.39-49.63,137.17-98.73,205.83-148,8.11-5.82,15.53-5.2,20.21,1.27,4.83,6.68,2.84,13.83-5.92,20.12C706.48,280.48,641.9,327.56,576.5,373.48c-33.68,23.66-54.86,54.07-61.28,95-2.84,18-11.18,34.17-26.3,44.87C479.77,519.81,468.56,523.36,463.25,525.88Z"/><path class="cls-3" d="M419.58,719.56c-.36-44.34,10.36-74.4,30-101.42,7.75-10.64,13.39-21.89,12.83-35.52-.69-16.87-12.27-28-28.5-23.78-14.54,3.74-28.71,10.21-41.9,17.52-15.93,8.83-15.31,9.63-29.69-1.13-15.52-11.61-32.19-20.38-52.51-17.72-20,2.62-30,18.89-22,37.37,3.56,8.22,8.7,16.71,15.38,22.46,36.29,31.23,52.22,71.5,58.08,118,8.84,70.15,19.87,140,30,210,1.5,10.4-2,17.14-10,18.58-7.8,1.4-13.68-3.78-15.24-14.32Q352.47,857,339.06,764.27c-2.48-17-4.61-34-7.66-50.85-4.78-26.37-17.15-48.85-36.17-67.77-7.59-7.54-15.48-15-21.87-23.49-16.47-21.91-18.52-47-6.43-66,12.33-19.42,37.9-29.57,64.12-23.08,13.41,3.32,26.4,9.54,38.56,16.28,6.63,3.68,10.45,3.24,16.9.08,12.79-6.26,26.09-12.71,39.89-15.46,39.73-7.9,68.93,22.18,60.54,62-2.39,11.38-6.92,23.32-13.77,32.56-25.59,34.53-31.72,72.19-25,114,11,68.3,20.25,136.87,30.16,205.33,1.24,8.56-3.56,15.26-11.09,16.2-7.13.89-13-3.86-14.27-12.32q-12-81.32-23.75-162.65C425.36,762.42,421.81,735.74,419.58,719.56Z"/><path class="cls-4" d="M780.31,470.79c95.53.36,173,78.33,172.49,173.55-.53,94.86-78.45,172.4-173.13,172.27-95.38-.14-172.86-78-172.64-173.38A172.46,172.46,0,0,1,780.31,470.79Zm-.59,25.74a146.69,146.69,0,0,0-147,146.36c-.3,81.36,65.29,147.58,146.57,148,80.74.39,147.61-66.21,147.73-147.13C927.18,562.59,861.07,496.53,779.72,496.53Z"/><path class="cls-5" d="M525.38,774.12c3.25-48.1,4.54-96.12-7.94-143.35-3.6-13.59-7.83-27-12.14-40.4-9.3-28.87-.49-55.43,25-72.14q145.92-95.76,292-191.19c10.89-7.13,21.2-4.35,23.05,6.1,1.34,7.58-3.21,11.73-9,15.48q-86.91,56.75-173.72,113.65-58.41,38.24-116.79,76.51c-17.57,11.56-22.74,25.26-15.46,45,21.73,59,26.11,119.92,21.2,181.94C546.84,826,548.74,885.67,565,944.34c2.87,10.34-.41,17.2-8.26,19.36s-14-2.86-16.93-13.71C524.38,892.25,520.43,833.56,525.38,774.12Z"/><path class="cls-6" d="M309.55,524.53c-34.42-.15-51.36-13-57.73-38.57-5.09-20.44-4.34-40.72,4.64-60.11,11.18-24.11,33.84-34.57,59.28-26.64,27.87,8.68,48.88,26.41,62.07,52.42,14.27,28.14,4.08,54-25.81,63.72C335.88,520.6,318.71,522.62,309.55,524.53Zm-36-65.56c1.51,9.43,2,16.17,3.73,22.61,3,11.42,9.29,17.67,20.91,16.71a256.19,256.19,0,0,0,48.31-8.61c11.59-3.27,14.68-12.43,9.59-23.46-10.14-22-27.1-36.62-50.56-43-10.59-2.87-19.13.55-23.8,10.43C277.69,442.29,275.79,451.94,273.59,459Z"/><path class="cls-7" d="M213.46,306.35c-3.08,3.24-5.81,8-9.87,9.95-5.71,2.79-11.35.39-15.12-5Q176.7,294.37,165,277.41c-5.37-7.78-10.88-15.48-16-23.4-4.73-7.27-3.7-14.27,2.31-18.65s13.5-3.34,18.38,3.58c13.55,19.19,26.8,38.59,40,58C211.15,299.12,211.71,301.92,213.46,306.35Z"/><path class="cls-8" d="M63.51,470c-.77,0-3.22.1-5.66,0-7.22-.37-11.54-4.52-12.27-11.35s2.82-12.25,9.8-13.42c9-1.52,18.24-2,27.39-2.81,14.34-1.22,28.69-2.32,43-3.44,9.5-.73,16,3.95,16.49,11.87.49,7.55-4.5,12.77-13.93,13.65C107.33,466.41,86.26,468.06,63.51,470Z"/><path class="cls-9" d="M165,369.81c.13,11.44-8.51,18.17-17,14.37-22.26-9.94-44.24-20.51-66.09-31.32-6.47-3.2-8.84-9.36-5.66-16.33s9.28-9.62,15.93-6.62q33.74,15.22,66.84,31.81C162.15,363.32,163.75,368.11,165,369.81Z"/><path class="cls-10" d="M735.44,688.13c-12.86,0-24.73.07-36.59,0-13.36-.09-17.66-4.35-17.7-17.57-.06-18.38-.1-36.76,0-55.14.07-11.62,4.42-16.07,16.12-16.28,12.2-.22,24.41,0,38.16,0,0-12,0-23.18,0-34.37,0-16.53,3.3-19.76,19.91-19.77,17.16,0,34.31,0,51.46,0,13.19,0,17.38,4.33,17.45,17.75.06,11.6,0,23.2,0,36.36,11.73,0,22.9,0,34.07,0,16.74,0,19.8,3.12,19.82,19.85q0,24.81,0,49.62c0,16-3.55,19.55-19.24,19.59-11.25,0-22.49,0-34.65,0,0,12.83.05,24.69,0,36.55-.07,12.93-4.22,17.24-16.86,17.31q-27.57.15-55.13,0c-13-.06-16.68-3.82-16.8-17.22C735.36,712.89,735.44,701,735.44,688.13Zm116.47-63.32c-12.19,0-24,.06-35.91,0-13.75-.1-17.41-3.78-17.46-17.42,0-12.1,0-24.2,0-36H761.17c0,12.28.07,23.89,0,35.5-.1,14.17-3.83,17.87-18.08,17.94-11.85.07-23.7,0-35.69,0v37.58c12.36,0,24.21,0,36.06,0,13.71,0,17.57,3.75,17.7,17.27.12,11.85,0,23.7,0,35.78h37.36c0-13-.08-25.25,0-37.46.1-11.26,4.3-15.47,15.5-15.57,12.45-.11,24.91,0,37.85,0Z"/></svg>