<svg id="Capa_1" data-name="Capa 1" xmlns="http://www.w3.org/2000/svg" xmlns:xlink="http://www.w3.org/1999/xlink" viewBox="0 0 1000 1000"><defs><style>.cls-1{fill:url(#Degradado_sin_nombre_8);}.cls-2{fill:url(#Degradado_sin_nombre_8-2);}.cls-3{fill:url(#Degradado_sin_nombre_8-3);}.cls-4{fill:url(#Degradado_sin_nombre_8-4);}.cls-5{fill:url(#Degradado_sin_nombre_8-5);}.cls-6{fill:url(#Degradado_sin_nombre_8-6);}.cls-7{fill:url(#Degradado_sin_nombre_8-7);}.cls-8{fill:url(#Degradado_sin_nombre_8-8);}.cls-9{fill:url(#Degradado_sin_nombre_8-9);}.cls-10{fill:url(#Degradado_sin_nombre_8-10);}.cls-11{fill:url(#Degradado_sin_nombre_8-11);}.cls-12{fill:url(#Degradado_sin_nombre_8-12);}</style><linearGradient id="Degradado_sin_nombre_8" x1="444.58" y1="66.41" x2="427.47" y2="2149.42" gradientUnits="userSpaceOnUse"><stop offset="0" stop-color="#fcc01a"/><stop offset="1" stop-color="#e31c45"/></linearGradient><linearGradient id="Degradado_sin_nombre_8-2" x1="712.26" y1="68.61" x2="695.15" y2="2151.62" xlink:href="#Degradado_sin_nombre_8"/><linearGradient id="Degradado_sin_nombre_8-3" x1="338.71" y1="65.54" x2="321.6" y2="2148.55" xlink:href="#Degradado_sin_nombre_8"/><linearGradient id="Degradado_sin_nombre_8-4" x1="355.77" y1="65.68" x2="338.66" y2="2148.69" xlink:href="#Degradado_sin_nombre_8"/><linearGradient id="Degradado_sin_nombre_8-5" x1="354.58" y1="65.67" x2="337.48" y2="2148.68" xlink:href="#Degradado_sin_nombre_8"/><linearGradient id="Degradado_sin_nombre_8-6" x1="356.8" y1="65.69" x2="339.69" y2="2148.7" xlink:href="#Degradado_sin_nombre_8"/><linearGradient id="Degradado_sin_nombre_8-7" x1="356.3" y1="65.68" x2="339.19" y2="2148.69" xlink:href="#Degradado_sin_nombre_8"/><linearGradient id="Degradado_sin_nombre_8-8" x1="570.53" y1="67.44" x2="553.43" y2="2150.45" xlink:href="#Degradado_sin_nombre_8"/><linearGradient id="Degradado_sin_nombre_8-9" x1="570" y1="67.44" x2="552.9" y2="2150.45" xlink:href="#Degradado_sin_nombre_8"/><linearGradient id="Degradado_sin_nombre_8-10" x1="519.48" y1="67.03" x2="502.37" y2="2150.03" xlink:href="#Degradado_sin_nombre_8"/><linearGradient id="Degradado_sin_nombre_8-11" x1="442.83" y1="66.4" x2="425.72" y2="2149.41" xlink:href="#Degradado_sin_nombre_8"/><linearGradient id="Degradado_sin_nombre_8-12" x1="693.44" y1="68.45" x2="676.33" y2="2151.46" xlink:href="#Degradado_sin_nombre_8"/></defs><path class="cls-1" d="M748.42,939.29c-2.48,0-4.95,0-7.43,0H139.88c-16.78,0-20.88-4-20.88-20.76q0-363.67,0-727.37c0-16.32,4.15-20.52,20.22-20.54q62.25,0,124.5,0c3,0,5.92.35,9.08.55v28.93H262.05q-47.38,0-94.76,0c-20.17,0-23.51,3.39-23.51,23.86q0,331.17,0,662.34c0,20,3.28,23.38,22.93,23.38H718.57a68.28,68.28,0,0,0,9.28-.17c7.63-1.07,12.93-5.37,13.09-13.25.41-18.88.3-37.77.07-56.65-.09-7.09-4.63-12.52-11.16-12.76-5.06-.19-11.14,2.67-15.08,6.11-2.59,2.25-2.84,7.93-3,12.11-.37,11.34-.13,22.7-.13,34.5H173.91V230.28h99.57c0,5.6-.2,10.8,0,16,.81,17.25,11.84,28.18,29.18,28.2q139.82.18,279.65,0c17.36,0,28.37-10.87,29.28-28.14.27-5.17,0-10.37,0-16h100v11.5q0,59,0,118c0,16.1-.16,32.21.15,48.3.16,7.9,3.91,13.74,12.33,15.07,7.74,1.22,13.39-2.09,16.16-9.33,1.07-2.77.93-6.1.94-9.17q.06-92.43,0-184.86c0-15.08-4.8-19.67-20.25-19.68q-49.23-.06-98.48,0H612.39v-29.5H623q60.86,0,121.71,0c17.51,0,21.39,3.86,21.39,21.27q0,112.41,0,224.81c0,3.4-.09,6.83.22,10.21.76,8.38,5.77,13.11,13.87,13.44s13.49-4,15-12.26a53.77,53.77,0,0,0,.53-9.25q0-114.25,0-228.52c0-32-17.44-49.23-49.52-49.27q-61.32-.08-122.64,0H611.69c0-8.22.24-15.28-.05-22.31-.73-17.84-11.8-28.55-29.66-28.68-17.65-.13-35.3-.2-53,.07-5.62.08-8.45-.92-10.34-7.28C508.38,48.07,478.06,25.38,443,25.25c-35.54-.14-66.26,22.56-76.65,57.59-1.88,6.35-4.71,7.37-10.33,7.28-17.34-.27-34.68-.16-52-.08-19,.09-30,10.76-30.5,29.7-.18,6.74,0,13.5,0,21.3h-12c-41.81,0-83.62-.1-125.42.05C113.74,141.17,97,152.63,91.57,172c-1.88,6.72-2.08,14.07-2.08,21.13Q89.34,555,89.41,916.81c0,2.78,0,5.57.07,8.35,1.2,26.21,19.21,43.73,45.57,43.74q306.6.11,613.19,0c11.84,0,18.5-5.45,18.56-14.79S760.3,939.41,748.42,939.29ZM303.58,119.64h38.94c10.22,0,20.43.06,30.65,0,14-.11,18.68-4.57,19.85-18.72,3.14-37.83,44.77-58.61,76.51-38C483,71.7,490.64,84.34,492,100.56c1.24,14.78,5.74,19,20.44,19.07,22.85.05,45.7,0,69.12,0V244.26h-278Z"/><path class="cls-2" d="M905.31,891.32c-18.93-33.72-38.66-67-57.95-100.5-3.55-6.15-8.28-9.43-15.71-9.47-9.8,0-9.15-10.2-13.32-15.61-.93-1.21,1.72-6.38,3.89-8.6,32-32.71,50.08-72,53.8-117.37,9-109.32-77.21-202.24-187.33-203.26-9.84,1-19.74,1.55-29.52,2.94C557,453.91,483.8,556.84,503.66,658.05,525.17,767.68,629,833.45,737.33,806.33c2.8-.7,8.29.39,9,2.14,2.54,5.93,11.64,10,6.64,18.22-4.13,6.76-3.27,12.64.48,19.08,19.29,33.15,38.17,66.55,57.7,99.56C827,972,859,980.43,885.29,965.51,911.2,950.77,920.39,918.18,905.31,891.32ZM688,783.14c-87.28-.39-157.81-71.63-157.42-159a158.16,158.16,0,0,1,316.31,1.44C846.5,712.84,775.22,783.53,688,783.14Zm84.38,10.31,20.14-11.81,9.27,15.46-19.91,11.63ZM875.91,935.52c-7.43,7.67-18.67,10-28.08,5-3.92-2.1-8-5.29-10.2-9C820,901.76,802.8,871.79,785,841.18l42.83-24.78,15.33,26.51c12,20.87,24.29,41.63,36.09,62.63C885.31,916.26,883.69,927.5,875.91,935.52Z"/><path class="cls-3" d="M324.34,515.62c8.05,8,15.51,8,23.52,0,31.4-31.21,63-62.21,93.79-94,24.68-25.52,23.8-65.48-.77-90.59s-64-26.37-90.59-2.56c-4.57,4.09-8.07,9.38-14.11,16.53-5.55-6.7-8.69-11.41-12.7-15.2-26.18-24.79-66-24.48-91.29.5s-26.54,65.23-1.57,91.21C261.29,453.44,293,484.4,324.34,515.62ZM252.8,351.67c14.67-14.81,36.53-14,52.84,1.93,6.41,6.28,12.57,12.81,19.08,19,7.79,7.35,15.07,7.41,22.83.08s15.09-15.56,23.17-22.74a35.4,35.4,0,0,1,48.08,1c13.36,12.64,16.11,34.53,3.32,47.79-28.07,29.09-57.49,56.89-88.06,86.89-5.86-6.52-12-13.87-18.66-20.65-20-20.26-40.22-40.25-60.28-60.42C239.1,388.4,238.19,366.42,252.8,351.67Z"/><path class="cls-4" d="M459.94,629.41h-1.86q-107.22,0-214.43.06c-4.28,0-8.78.16-12.77,1.48-7.09,2.34-10,8.08-9.14,15.34.79,6.93,5,11.2,11.81,12.46a51.89,51.89,0,0,0,9.26.37q53.83,0,107.68,0,54.76,0,109.54,0c13.44,0,20.43-5.13,20.4-14.76S473.15,629.5,459.94,629.41Z"/><path class="cls-5" d="M235.22,595.49a77.43,77.43,0,0,0,8.35.13H418.09c14.85,0,29.73.42,44.55-.25,4.8-.22,11.17-2,13.74-5.47,2.75-3.65,3.42-10.46,2.18-15.15-1.87-7.08-8.58-8.85-15.65-8.83q-55.7.12-111.4,0h-91.9c-8.05,0-16.11-.32-24.13.15a14.32,14.32,0,0,0-13.92,14.53C221.49,588.51,227,594.58,235.22,595.49Z"/><path class="cls-6" d="M467.48,757.24a66.19,66.19,0,0,0-8.34-.19H242.86a68.17,68.17,0,0,0-8.34.18c-7.37.92-11.87,5.24-12.74,12.55-.93,7.68,2.38,13.41,9.94,15.71,3.46,1,7.31,1.12,11,1.13q108.14.09,216.27,0c4,0,8.17-.14,11.84-1.42,6.92-2.42,10.35-8,9.4-15.24S474.91,758.18,467.48,757.24Z"/><path class="cls-7" d="M458.16,693.3q-107.19,0-214.38,0a53.81,53.81,0,0,0-11.08.67c-7.35,1.55-11.07,6.73-11.1,14s3.64,12.44,11,14.1a46.22,46.22,0,0,0,10.14.67q54.3.07,108.59,0H458c15.13,0,22.38-4.77,22.43-14.66S473.2,693.3,458.16,693.3Z"/><path class="cls-8" d="M645.33,404.56c11.75,0,18.43-5.61,18.28-14.89-.14-8.93-6.73-14.72-17.76-14.75q-77.93-.17-155.84,0c-11,0-17.68,5.83-17.85,14.69-.18,9.27,6.55,14.91,18.26,14.95,25.66.08,51.33,0,77,0C593.38,404.59,619.36,404.64,645.33,404.56Z"/><path class="cls-9" d="M491,341.07q38.5.06,77,0c26.29,0,52.57.07,78.85,0,9.53-.05,15.51-4.88,16.59-12.79,1.38-10-5.77-16.8-18.13-16.81q-77-.07-154,0c-12.32,0-19.32,5.63-19.12,15.13C472.37,335.71,479.19,341,491,341.07Z"/><path class="cls-10" d="M515.91,468.22c9.25,0,18.51.16,27.75-.05,10.36-.23,16.71-5.87,16.81-14.48S554.27,439,544,438.85q-27.76-.39-55.52,0c-10.27.15-16.53,6.25-16.35,14.94s6.45,14.14,16.92,14.38C498,468.38,507,468.22,515.91,468.22Z"/><path class="cls-11" d="M443.05,77.33a27.31,27.31,0,1,0,26.64,27.61A27.31,27.31,0,0,0,443.05,77.33Z"/><path class="cls-12" d="M815.15,641.51c.18-9.12-6.11-14.81-17.28-15-12.07-.24-24.16-.35-36.22,0-6,.2-8.54-1.66-10.12-7.7-7.6-29-15.79-57.84-23.78-86.74-2.14-7.74-7-12.68-15.23-12.29-8.63.41-13.13,6-14.44,14.33q-5.62,35.75-11.29,71.48c-2.16,13.57-4.43,27.12-6.65,40.69l-1.62,0c-.66-1.63-1.42-3.23-1.95-4.9-5.51-17.38-10.38-35-16.88-52-1.83-4.78-8.23-10.37-12.94-10.77s-10.63,4.52-14.65,8.5c-3.33,3.3-5.37,8.4-6.77,13.07-6.38,21.34-19.49,31.36-42.21,26.3a16.71,16.71,0,0,0-4.63,0c-10,.61-15.92,5.89-16.17,14.3-.26,8.82,5.83,14.94,16.19,15.22,13.61.36,27.24.13,40.87.09,7.57,0,12.83-3.52,16-10.49,1.8-3.94,4.21-7.61,7.25-13,9.36,29.49,18.09,56.82,26.67,84.19,2.61,8.32,7.33,13.7,16.68,12.79,9-.88,12.33-7.26,13.59-15.22,2.64-16.8,5.17-33.62,7.85-50.42,2.95-18.55,6-37.09,9-55.63a285.19,285.19,0,0,1,11.11,34.77c2.29,8.79,7.9,13,16.75,13,18,.07,35.92.22,53.87,0C808.83,655.87,815,650.24,815.15,641.51Z"/></svg>