<svg id="Capa_1" data-name="Capa 1" xmlns="http://www.w3.org/2000/svg" xmlns:xlink="http://www.w3.org/1999/xlink" viewBox="0 0 1000 1000"><defs><style>.cls-1{fill:url(#Degradado_sin_nombre_8);}.cls-2{fill:url(#Degradado_sin_nombre_8-2);}.cls-3{fill:url(#Degradado_sin_nombre_8-3);}.cls-4{fill:url(#Degradado_sin_nombre_8-4);}.cls-5{fill:url(#Degradado_sin_nombre_8-5);}</style><linearGradient id="Degradado_sin_nombre_8" x1="498.48" y1="60.66" x2="500.61" y2="1788.66" gradientUnits="userSpaceOnUse"><stop offset="0" stop-color="#fcc01a"/><stop offset="1" stop-color="#e31c45"/></linearGradient><linearGradient id="Degradado_sin_nombre_8-2" x1="627.93" y1="60.5" x2="630.07" y2="1788.5" xlink:href="#Degradado_sin_nombre_8"/><linearGradient id="Degradado_sin_nombre_8-3" x1="853.79" y1="60.22" x2="855.93" y2="1788.22" xlink:href="#Degradado_sin_nombre_8"/><linearGradient id="Degradado_sin_nombre_8-4" x1="333.38" y1="60.86" x2="335.52" y2="1788.86" xlink:href="#Degradado_sin_nombre_8"/><linearGradient id="Degradado_sin_nombre_8-5" x1="684.54" y1="60.43" x2="686.68" y2="1788.43" xlink:href="#Degradado_sin_nombre_8"/></defs><path class="cls-1" d="M473.11,738.7c-10.56,0-20.36.11-30.14,0-11.84-.17-16.1-4.42-16.2-16.23-.12-14.13,0-28.27,0-44-12.07,0-23.61,0-35.15,0-12.53,0-24.34.91-36.64,6-32.33,13.27-68.77-5.41-80.29-38.77a39.32,39.32,0,0,0-8.91-14.47Q158.88,523.8,51.58,416.87C35.77,401.12,29.5,383,36.13,361.44,45,332.6,77.65,318,105.54,329.9c2.77,1.19,5.45,2.57,9.06,4.28-.46-27.52,8.87-49.93,30.75-66.1,15.75-11.65,33.66-16.73,53.09-13.92,48.75,7.06,70.54,43.3,61.61,101.64,33.06-19.51,57.42-16.44,84.52,10.65,39.63,39.62,79.58,78.92,118.7,119,12.83,13.16,27,18.64,45.16,18.47,57.57-.57,115.16.19,172.73-.4,24-.25,43.31,7.67,60.16,24.82,46.41,47.2,93.42,93.81,140.33,140.51,12.5,12.44,20.31,26.58,16.49,44.6-1.55,7.27-5.44,14-8.61,21.93,18.14,0,36.45,0,54.76,0,3.08,0,6.22-.28,9.23.19,6.56,1,10.55,5.12,11.1,11.7s-3,11.23-9.28,13.18c-2.84.9-6.07.75-9.13.75-62.5,0-125-.07-187.52.17-8,0-14-2.3-19.54-8.1-19.16-20-38.51-39.86-58.23-59.32-9.87-9.74-23.09-13.36-36.31-15.3-9-1.32-18.26-.25-28.54-.25,0,14.75,0,28.51,0,42.28-.06,14.12-3.93,17.91-18.2,18-8,0-15.91,0-24.58,0V878.33c3.3.15,6.57.41,9.84.42,19.7,0,39.41-.15,59.11.07,31.49.35,52.62,21.16,53.59,52.53.19,6.15.15,12.31,0,18.47-.24,12.43-4.37,16.54-16.76,16.57q-42.49.08-85,0H368.71c-14.77,0-18.69-3.86-18.78-18.43,0-6.15-.21-12.32.11-18.46,1.5-29.2,22.62-50,51.84-50.63,20.31-.43,40.64-.1,61-.11h10.26Zm-85-165.5c3.36.2,6.05.48,8.75.48q123.75,0,247.5-.14c4.65,0,9.59-1.73,13.89-3.74,39-18.24,84.37,7.19,88.93,49.71a21.3,21.3,0,0,0,5.61,11.79c27.63,28.09,55.57,55.87,83.48,83.69a40.85,40.85,0,0,0,7.81,6.4c8.29,4.91,17.82,3.27,24.31-3.84,6.11-6.69,6.52-15.74.72-23.66a79.38,79.38,0,0,0-8-8.9C815,638.83,768.66,592.88,722.83,546.43c-11.62-11.77-24.54-17.13-41.07-17-58.79.45-117.59-.09-176.38.3-23.23.16-42.19-7.56-58.55-24.24-40.53-41.3-81.7-82-122.65-122.87-18.33-18.3-36-18.2-54.5.22-9.16,9.12-18.35,18.21-27.41,27.43-16.09,16.36-16,34.87.21,51.17q37.16,37.29,74.41,74.46c8.27,8.27,16.37,16.73,24.92,24.71,6.84,6.37,15.37,6.21,21.61.34s6.5-15.24.43-22.39c-1.59-1.88-3.43-3.53-5.17-5.27q-37.21-37.23-74.42-74.47c-7.26-7.3-8-14.44-2.44-20.24s13.08-5.53,20.22,1.57c26.64,26.47,53.31,52.91,79.63,79.69,13.48,13.7,16,29.92,8.52,47.64C389.5,569.11,389,570.81,388.14,573.2Zm-76.39-5.4c-3.16-3.33-5.38-5.78-7.72-8.12Q206.5,462.14,109,364.61c-15.31-15.3-29.89-17.23-41.77-5.55s-10,26.74,5,41.74Q170.35,499,268.57,597.16c2.05,2.05,4.32,3.88,7.18,6.43C283.11,586.85,294.49,575.29,311.75,567.8ZM628,600.5H392.62c1.27,9.29,3.36,17.75,3.3,26.2s-2.26,16.77-3.58,25.5h236C621,634.84,621.32,617.78,628,600.5ZM669.12,940c3.07-22.45-6.92-35.28-27.87-35.32q-118.57-.24-237.14,0c-20.49.06-31.59,15-27,35.3ZM189,377.06a49,49,0,0,0,49.42-48.13c.44-27-21.88-49.61-49-49.62a48.88,48.88,0,0,0-.45,97.75ZM499.72,877.87h46.41V739.4H499.72Zm90-198.82H453.41v33.16H589.75Zm116.84,7.51C723,702,738.8,717,754.73,732c1.5,1.4,3.49,3.21,5.26,3.23,19.21.23,38.42.15,57.7.15l-77.88-77.78c-3.84,4.41-8,10.19-13.16,14.83S715.2,680.57,706.59,686.56ZM370.32,627a36.44,36.44,0,0,0-35.18-37.4c-20-.61-36.93,15.3-37.45,35.14-.55,20.69,15.16,37.38,35.66,37.9A36.33,36.33,0,0,0,370.32,627Zm351.17-1.29a36.36,36.36,0,1,0-72.7,1.25c.33,19.89,17.18,36.14,37,35.68A36.35,36.35,0,0,0,721.49,625.75ZM216.38,399l-29.29,4.88,17.72,19.29Z"/><path class="cls-2" d="M560.83,140.19C583.24,173.48,587,207.34,571,242.87c-9,19.93-25.49,33.76-40.92,48.26-5.8,5.45-12.63,3.34-18.12-2.14l-31.35-31.35q-42.13-42.12-84.25-84.25c-10.07-10.08-10.11-15.58-.2-25.54,6.51-6.55,12.93-13.2,19.72-19.45,33.89-31.16,82.37-35.09,121-10,1.79,1.15,3.63,2.21,6.22,3.79,12.12-12.35,23.85-25,36.29-36.89C628.9,38,687.27,22.81,752.14,44.16c65.37,21.52,102.76,69.15,114.17,137,1.11,6.63,1.09,13.5,1.09,20.26q.11,181.49.05,363c0,14.34-3.81,20.47-12.7,20.53s-13.16-6.3-13.16-20.29q0-180.09,0-360.18c0-58.83-33.53-109.77-86.92-132.16S641,61.44,599.12,102.16C586.35,114.58,573.84,127.25,560.83,140.19Zm-37.9,121.52C549,240,561.64,213,551.55,179.27c-8.73-29.2-29.52-46.35-59.68-50.59-30-4.22-52.59,9.32-70.71,31.25Z"/><path class="cls-3" d="M841.58,886.43c0-28.16,0-56.1,0-84a85.6,85.6,0,0,1,.19-10.14c.91-7.71,5-12.73,13.19-12.49s12.3,5.24,12.36,13.16c.17,23.37.1,46.76.12,70.14v24.52c10.11,0,19.49-.09,28.86,0,9.53.11,19.14-.33,28.56.81a44.86,44.86,0,0,1,39.43,39.23,137.07,137.07,0,0,1,.25,26.72c-.63,8.39-6.33,12.07-14.62,12-22.77,0-45.54,0-68.31,0q-59.54,0-119.07,0c-14.15,0-18-3.77-17.85-18.08.09-8.58-.4-17.42,1.48-25.67,4.87-21.39,22.88-34.64,46.11-35,15.38-.26,30.76-.16,46.15-.25A17.54,17.54,0,0,0,841.58,886.43Zm97,53.65c.86-18-6.57-26.51-23.26-26.58q-60.9-.24-121.79,0c-16.66.08-24.27,9.35-22.2,26.56Z"/><path class="cls-4" d="M333.81,643.07a17,17,0,0,1-16.71-17.13,16.66,16.66,0,0,1,17.17-16.52,17,17,0,0,1,16.79,17A17.17,17.17,0,0,1,333.81,643.07Z"/><path class="cls-5" d="M685.46,609.43a16.91,16.91,0,0,1,16.73,17,17.17,17.17,0,0,1-17.28,16.61,16.92,16.92,0,0,1-16.61-17.18A16.5,16.5,0,0,1,685.46,609.43Z"/></svg>